<svg id="icons" xmlns="http://www.w3.org/2000/svg" viewBox="0 0 48 48"><title>notebook</title><g id="notebook"><rect x="8" y="2" width="34" height="44" rx="2" ry="2" fill="#fff"/><rect x="8" y="2" width="6" height="44" rx="2" ry="2" fill="#b1bfc9"/><path d="M40,47H10a3,3,0,0,1-3-3V4a3,3,0,0,1,3-3H40a3,3,0,0,1,3,3V44A3,3,0,0,1,40,47ZM10,3A1,1,0,0,0,9,4V44a1,1,0,0,0,1,1H40a1,1,0,0,0,1-1V4a1,1,0,0,0-1-1Z" fill="#252b33"/><path d="M10,7H6A1,1,0,0,1,6,5h4a1,1,0,0,1,0,2Z" fill="#252b33"/><path d="M10,25H6a1,1,0,0,1,0-2h4a1,1,0,0,1,0,2Z" fill="#252b33"/><path d="M10,31H6a1,1,0,0,1,0-2h4a1,1,0,0,1,0,2Z" fill="#252b33"/><path d="M10,37H6a1,1,0,0,1,0-2h4a1,1,0,0,1,0,2Z" fill="#252b33"/><path d="M10,43H6a1,1,0,0,1,0-2h4a1,1,0,0,1,0,2Z" fill="#252b33"/><path d="M10,19H6a1,1,0,0,1,0-2h4a1,1,0,0,1,0,2Z" fill="#252b33"/><path d="M10,13H6a1,1,0,0,1,0-2h4a1,1,0,0,1,0,2Z" fill="#252b33"/><path d="M14,47a1,1,0,0,1-1-1V2a1,1,0,0,1,2,0V46A1,1,0,0,1,14,47Z" fill="#252b33"/><rect x="31" y="1" width="4" height="46" fill="#fc3768"/></g></svg>