<?xml version="1.0" encoding="iso-8859-1"?>
<!-- Generator: Adobe Illustrator 16.0.0, SVG Export Plug-In . SVG Version: 6.00 Build 0)  -->
<!DOCTYPE svg PUBLIC "-//W3C//DTD SVG 1.1//EN" "http://www.w3.org/Graphics/SVG/1.1/DTD/svg11.dtd">
<svg version="1.1" xmlns="http://www.w3.org/2000/svg" xmlns:xlink="http://www.w3.org/1999/xlink" x="0px" y="0px" width="512px"
	 height="512px" viewBox="0 0 512 512" style="enable-background:new 0 0 512 512;" xml:space="preserve">
<g id="_x36_44_x2C__Copy_x2C__Documents_x2C__Duplicate">
	<g>
		<polygon style="fill:#95939E;" points="401,36 151,36 151,86 111,86 111,126 71,126 71,456 351,456 351,416 391,416 391,376 
			441,376 441,336 441,36 		"/>
		<path style="fill:#FF5856;" d="M456,406c13.81,0,25,11.19,25,25s-11.19,25-25,25c-13.811,0-25-11.19-25-25S442.189,406,456,406z"
			/>
		<path style="fill:#FF5856;" d="M61,46c11.05,0,20,8.95,20,20s-8.95,20-20,20c-11.04,0-20-8.95-20-20S49.96,46,61,46z"/>
		<polygon style="fill:#95939E;" points="351,416 351,456 71,456 71,126 111,126 111,416 		"/>
		<polygon style="fill:#ACA9B5;" points="391,376 391,416 351,416 111,416 111,126 111,86 151,86 151,336 151,376 		"/>
		<polygon style="fill:#ECEBED;" points="401,36 151,36 151,86 151,336 151,376 391,376 441,376 441,336 441,36 		"/>
		<path style="fill:#313A52;" d="M471,66c5.52,0,10,4.48,10,10s-4.48,10-10,10s-10-4.48-10-10S465.48,66,471,66z"/>
		<path style="fill:#313A52;" d="M391,456c5.52,0,10,4.48,10,10s-4.48,10-10,10s-10-4.48-10-10S385.48,456,391,456z"/>
		<path style="fill:#BCB7C6;" d="M331,266c5.52,0,10,4.48,10,10s-4.48,10-10,10s-10-4.48-10-10S325.48,266,331,266z"/>
		<path style="fill:#313A52;" d="M121,36c5.52,0,10,4.48,10,10s-4.48,10-10,10s-10-4.48-10-10S115.48,36,121,36z"/>
		<path style="fill:#313A52;" d="M41,276c5.52,0,10,4.48,10,10s-4.48,10-10,10s-10-4.48-10-10S35.48,276,41,276z"/>
		<path style="fill:#BCB7C6;" d="M331,126H201c-5.523,0-10-4.477-10-10s4.477-10,10-10h130c5.523,0,10,4.477,10,10
			S336.523,126,331,126z"/>
		<path style="fill:#BCB7C6;" d="M371,166H201c-5.523,0-10-4.477-10-10s4.477-10,10-10h170c5.523,0,10,4.477,10,10
			S376.523,166,371,166z"/>
		<path style="fill:#BCB7C6;" d="M391,206H201c-5.523,0-10-4.477-10-10s4.477-10,10-10h190c5.523,0,10,4.477,10,10
			S396.523,206,391,206z"/>
		<path style="fill:#BCB7C6;" d="M351,246H201c-5.523,0-10-4.477-10-10s4.477-10,10-10h150c5.523,0,10,4.477,10,10
			S356.523,246,351,246z"/>
		<path style="fill:#BCB7C6;" d="M301,286H201c-5.523,0-10-4.478-10-10s4.477-10,10-10h100c5.523,0,10,4.478,10,10
			S306.523,286,301,286z"/>
		<path style="fill:#BCB7C6;" d="M391,116c0,5.523,4.477,10,10,10s10-4.477,10-10V36h-20V116z"/>
	</g>
</g>
<g id="Layer_1">
</g>
</svg>
