<?xml version="1.0" encoding="UTF-8" standalone="no"?> <svg xmlns="http://www.w3.org/2000/svg" xmlns:xlink="http://www.w3.org/1999/xlink" width="64.142" height="63.929" viewBox="0 0 64.142 63.929">
  <defs>
    <clipPath id="clip-path">
      <path id="Rectangle_127" data-name="Rectangle 127" d="M0,24.008,24,0,48,24.008V52H0Z" fill="#ecf0f1"/>
    </clipPath>
  </defs>
  <g id="house" transform="translate(0.071 -0.071)">
    <g id="Rectangle_127_Rectangle_132" data-name="Rectangle 127 + Rectangle 132" transform="translate(8 12)">
      <path id="Rectangle_127-2" data-name="Rectangle 127" d="M0,24.008,24,0,48,24.008V52H0Z" fill="#ecf0f1"/>
      <g id="Rectangle_127_Rectangle_132-2" data-name="Rectangle 127 + Rectangle 132" clip-path="url(#clip-path)">
        <path id="Rectangle_132" data-name="Rectangle 132" d="M63.868,64C58.041,44.86,41.186,32,21.926,32A42.579,42.579,0,0,0,0,38.1V0H88V64H63.868Z" transform="translate(-22 -12)" fill="rgba(189,195,199,0.4)"/>
      </g>
    </g>
    <rect id="Rectangle_130" data-name="Rectangle 130" width="14" height="2" transform="translate(14 62)" fill="#bdc3c7"/>
    <path id="Rectangle_131" data-name="Rectangle 131" d="M2,0H8a2,2,0,0,1,2,2V16a0,0,0,0,1,0,0H0a0,0,0,0,1,0,0V2A2,2,0,0,1,2,0Z" transform="translate(16 46)" fill="#e87e03"/>
    <rect id="Rectangle_134" data-name="Rectangle 134" width="2" height="4" transform="translate(22 52)" fill="#f2c500"/>
    <rect id="Rectangle_133" data-name="Rectangle 133" width="4" height="10" transform="translate(46 8)" fill="#bdc3c7"/>
    <path id="Rectangle_128" data-name="Rectangle 128" d="M3.338,35.622h0L-.071,32.213,32.071.071l32,32L60.662,35.48,32.071,6.89Z" fill="#e94b35"/>
    <rect id="Rectangle_135" data-name="Rectangle 135" width="10" height="14" rx="2" transform="translate(36 40)" fill="#fff"/>
  </g>
</svg>
